<svg width="39" height="60" viewBox="0 0 39 60" fill="none" xmlns="http://www.w3.org/2000/svg">
<path d="M36.6425 1.38112C36.7068 0.828646 37.1996 0.439818 37.743 0.512647C38.2865 0.585477 38.6749 1.09238 38.6106 1.64486L36.6425 1.38112ZM10.597 58.906C10.3367 59.3926 9.73545 59.567 9.25405 59.2955L1.40915 54.8711C0.927746 54.5996 0.748512 53.985 1.00882 53.4984C1.26912 53.0117 1.87039 52.8373 2.35179 53.1088L9.32504 57.0417L13.0956 49.9926C13.3559 49.506 13.9572 49.3316 14.4386 49.6031C14.92 49.8746 15.0992 50.4892 14.8389 50.9758L10.597 58.906ZM8.77574 58.6898C8.47358 57.6537 8.19295 56.6472 7.93317 55.6693L9.84581 55.1665C10.1011 56.1275 10.3773 57.118 10.675 58.139L8.77574 58.6898ZM6.53424 49.7197C6.08682 47.4956 5.76893 45.4463 5.56957 43.555L7.54007 43.3659C7.73182 45.185 8.03909 47.1702 8.47557 49.3398L6.53424 49.7197ZM5.3485 37.3208C5.46136 34.9456 5.82722 32.8912 6.41026 31.1001L8.29228 31.7578C7.77339 33.3518 7.4336 35.2233 7.32803 37.4448L5.3485 37.3208ZM9.52927 25.5275C10.9566 23.8963 12.6509 22.6589 14.4612 21.6353L15.4408 23.4025C13.7602 24.3528 12.2586 25.4617 11.0167 26.881L9.52927 25.5275ZM19.9894 19.0719C21.8466 18.3167 23.6779 17.6064 25.4455 16.7734L26.2974 18.6067C24.4678 19.4689 22.5623 20.2085 20.7454 20.9474L19.9894 19.0719ZM30.3644 13.8169C31.7886 12.6813 33.0504 11.3173 34.0749 9.59805L35.7729 10.6615C34.6124 12.609 33.185 14.1473 31.599 15.4119L30.3644 13.8169ZM36.148 4.27911C36.3551 3.38219 36.5216 2.41847 36.6425 1.38112L38.6106 1.64486C38.4816 2.75203 38.3027 3.79035 38.0776 4.76549L36.148 4.27911Z" fill="#6168FF"/>
</svg>
